<svg width="26" height="26" viewBox="0 0 26 26" fill="none" xmlns="http://www.w3.org/2000/svg">
<path fill-rule="evenodd" clip-rule="evenodd" d="M22.9888 7.791L22.3145 6.6209C21.744 5.63082 20.4798 5.28926 19.4884 5.85736C19.0164 6.13537 18.4533 6.21425 17.9232 6.07659C17.393 5.93894 16.9394 5.59606 16.6623 5.12357C16.4841 4.82325 16.3883 4.48118 16.3846 4.13196C16.4007 3.57207 16.1895 3.02952 15.7991 2.62789C15.4087 2.22627 14.8723 1.99977 14.3122 2H12.9537C12.4049 2 11.8788 2.21866 11.4917 2.60761C11.1046 2.99656 10.8885 3.52373 10.8911 4.07246C10.8749 5.20542 9.95174 6.1153 8.81867 6.11518C8.46945 6.11155 8.12738 6.01577 7.82706 5.83753C6.83562 5.26943 5.57143 5.61099 5.00097 6.60107L4.2771 7.791C3.70733 8.77984 4.04424 10.0432 5.03072 10.6171C5.67195 10.9873 6.06696 11.6715 6.06696 12.4119C6.06696 13.1523 5.67195 13.8365 5.03072 14.2067C4.04549 14.7767 3.70822 16.037 4.2771 17.0229L4.96131 18.2029C5.22859 18.6852 5.67704 19.0411 6.20743 19.1918C6.73782 19.3426 7.30641 19.2757 7.78739 19.0061C8.26023 18.7302 8.82368 18.6546 9.35251 18.7961C9.88134 18.9376 10.3317 19.2845 10.6036 19.7597C10.7818 20.0601 10.8776 20.4021 10.8812 20.7513C10.8812 21.8959 11.8091 22.8238 12.9537 22.8238H14.3122C15.4529 22.8238 16.3792 21.902 16.3846 20.7613C16.382 20.2108 16.5995 19.6821 16.9887 19.2929C17.378 18.9036 17.9067 18.6861 18.4571 18.6888C18.8055 18.6981 19.1462 18.7935 19.4487 18.9664C20.4376 19.5362 21.701 19.1993 22.2748 18.2128L22.9888 17.0229C23.2651 16.5485 23.341 15.9836 23.1995 15.4532C23.0581 14.9227 22.711 14.4706 22.2351 14.1968C21.7593 13.923 21.4122 13.4709 21.2708 12.9404C21.1293 12.41 21.2052 11.8451 21.4815 11.3707C21.6612 11.0569 21.9214 10.7968 22.2351 10.6171C23.2157 10.0436 23.5518 8.78754 22.9888 7.80092V7.791Z" stroke="white" stroke-width="1.5" stroke-linecap="round" stroke-linejoin="round"/>
<path d="M13.6378 15.2675C15.215 15.2675 16.4935 13.989 16.4935 12.4119C16.4935 10.8347 15.215 9.55621 13.6378 9.55621C12.0607 9.55621 10.7822 10.8347 10.7822 12.4119C10.7822 13.989 12.0607 15.2675 13.6378 15.2675Z" stroke="white" stroke-width="1.5" stroke-linecap="round" stroke-linejoin="round"/>
</svg>
